<?xml version="1.0" encoding="UTF-8" standalone="no"?>
<!DOCTYPE svg PUBLIC "-//W3C//DTD SVG 1.1//EN"
 "http://www.w3.org/Graphics/SVG/1.1/DTD/svg11.dtd">
<!-- Generated by graphviz version 15.0.0 (20260523.1842)
 -->
<!-- Pages: 1 -->
<svg width="360pt" height="210pt"
 viewBox="0.00 0.00 360.00 210.00" xmlns="http://www.w3.org/2000/svg" xmlns:xlink="http://www.w3.org/1999/xlink">
<g id="graph0" class="graph" transform="scale(0.372045 0.372045) rotate(0) translate(4 561.75)">
<polygon fill="white" stroke="none" points="-4,4 -4,-561.75 963.62,-561.75 963.62,4 -4,4"/>
<!-- &#45;8362239163161629074 -->
<g id="node1" class="node">
<title>&#45;8362239163161629074</title>
<g id="a_node1"><a xlink:title="A Blockwise Layer with 36 Tasks.&#10;Array Shape: (10980, 10980)&#10;Data Type: float32&#10;Chunk Size: (2048, 2048)&#10;Chunk Type: numpy.ndarray&#10;">
<polygon fill="none" stroke="black" points="175.12,-413.75 75.12,-413.75 75.12,-377.75 175.12,-377.75 175.12,-413.75"/>
<text xml:space="preserve" text-anchor="middle" x="125.12" y="-388.38" font-family="Helvetica,sans-Serif" font-size="20.00">where&#45;#0</text>
</a>
</g>
</g>
<!-- 4392385267279790850 -->
<g id="node8" class="node">
<title>4392385267279790850</title>
<g id="a_node8"><a xlink:title="A Blockwise Layer with 36 Tasks.&#10;Array Shape: (10980, 10980)&#10;Data Type: float32&#10;Chunk Size: (2048, 2048)&#10;Chunk Type: numpy.ndarray&#10;">
<polygon fill="none" stroke="black" points="163.88,-485.75 86.38,-485.75 86.38,-449.75 163.88,-449.75 163.88,-485.75"/>
<text xml:space="preserve" text-anchor="middle" x="125.12" y="-460.38" font-family="Helvetica,sans-Serif" font-size="20.00">mul&#45;#5</text>
</a>
</g>
</g>
<!-- &#45;8362239163161629074&#45;&gt;4392385267279790850 -->
<g id="edge9" class="edge">
<title>&#45;8362239163161629074&#45;&gt;4392385267279790850</title>
<path fill="none" stroke="black" d="M125.12,-414.05C125.12,-421.34 125.12,-430.02 125.12,-438.21"/>
<polygon fill="black" stroke="black" points="121.63,-438.13 125.13,-448.13 128.63,-438.13 121.63,-438.13"/>
</g>
<!-- 6052208622198032079 -->
<g id="node2" class="node">
<title>6052208622198032079</title>
<g id="a_node2"><a xlink:title="A Materialized Layer with 2 Tasks.&#10;">
<polygon fill="none" stroke="black" points="193.88,-36 86.38,-36 86.38,0 193.88,0 193.88,-36"/>
<text xml:space="preserve" text-anchor="middle" x="140.12" y="-10.62" font-family="Helvetica,sans-Serif" font-size="20.00">cfg&#45;red&#45;#1</text>
</a>
</g>
</g>
<!-- &#45;3558860105703733304 -->
<g id="node3" class="node">
<title>&#45;3558860105703733304</title>
<g id="a_node3"><a xlink:title="A Materialized Layer with 38 Tasks.&#10;">
<polygon fill="none" stroke="black" points="126.25,-108 0,-108 0,-72 126.25,-72 126.25,-108"/>
<text xml:space="preserve" text-anchor="middle" x="63.12" y="-82.62" font-family="Helvetica,sans-Serif" font-size="20.00">open&#45;red&#45;#1</text>
</a>
</g>
</g>
<!-- 6052208622198032079&#45;&gt;&#45;3558860105703733304 -->
<g id="edge3" class="edge">
<title>6052208622198032079&#45;&gt;&#45;3558860105703733304</title>
<path fill="none" stroke="black" d="M121.09,-36.3C111.93,-44.63 100.77,-54.78 90.7,-63.93"/>
<polygon fill="black" stroke="black" points="88.37,-61.32 83.33,-70.63 93.08,-66.5 88.37,-61.32"/>
</g>
<!-- &#45;5091881804953857615 -->
<g id="node4" class="node">
<title>&#45;5091881804953857615</title>
<g id="a_node4"><a xlink:title="A Materialized Layer with 1368 Tasks.&#10;Array Shape: (38, 10980, 10980)&#10;Data Type: uint16&#10;Chunk Size: (1, 2048, 2048)&#10;Chunk Type: numpy.ndarray&#10;">
<polygon fill="none" stroke="black" points="156.62,-197.75 23.62,-197.75 23.62,-144 156.62,-144 156.62,-197.75"/>
<text xml:space="preserve" text-anchor="middle" x="90.12" y="-155.75" font-family="Helvetica,sans-Serif" font-size="40.00">red&#45;#1</text>
</a>
</g>
</g>
<!-- 6052208622198032079&#45;&gt;&#45;5091881804953857615 -->
<g id="edge5" class="edge">
<title>6052208622198032079&#45;&gt;&#45;5091881804953857615</title>
<path fill="none" stroke="black" d="M141.98,-36.3C143.31,-54.65 143.6,-84.24 135.12,-108 131.82,-117.26 126.67,-126.34 121.01,-134.57"/>
<polygon fill="black" stroke="black" points="118.22,-132.45 115.11,-142.58 123.86,-136.6 118.22,-132.45"/>
</g>
<!-- &#45;3558860105703733304&#45;&gt;&#45;5091881804953857615 -->
<g id="edge4" class="edge">
<title>&#45;3558860105703733304&#45;&gt;&#45;5091881804953857615</title>
<path fill="none" stroke="black" d="M68.98,-108.11C71.49,-115.44 74.52,-124.3 77.5,-133"/>
<polygon fill="black" stroke="black" points="74.16,-134.03 80.71,-142.36 80.78,-131.76 74.16,-134.03"/>
</g>
<!-- 1103691210324379109 -->
<g id="node5" class="node">
<title>1103691210324379109</title>
<g id="a_node5"><a xlink:title="A Materialized Layer with 36 Tasks.&#10;Array Shape: (10980, 10980)&#10;Data Type: uint16&#10;Chunk Size: (2048, 2048)&#10;Chunk Type: numpy.ndarray&#10;">
<polygon fill="none" stroke="black" points="145.38,-269.75 34.88,-269.75 34.88,-233.75 145.38,-233.75 145.38,-269.75"/>
<text xml:space="preserve" text-anchor="middle" x="90.12" y="-244.38" font-family="Helvetica,sans-Serif" font-size="20.00">getitem&#45;#2</text>
</a>
</g>
</g>
<!-- &#45;5091881804953857615&#45;&gt;1103691210324379109 -->
<g id="edge6" class="edge">
<title>&#45;5091881804953857615&#45;&gt;1103691210324379109</title>
<path fill="none" stroke="black" d="M90.12,-198.14C90.12,-205.88 90.12,-214.38 90.12,-222.25"/>
<polygon fill="black" stroke="black" points="86.63,-222.02 90.13,-232.02 93.63,-222.02 86.63,-222.02"/>
</g>
<!-- 7232139198822720848 -->
<g id="node6" class="node">
<title>7232139198822720848</title>
<g id="a_node6"><a xlink:title="A Blockwise Layer with 36 Tasks.&#10;Array Shape: (10980, 10980)&#10;Data Type: bool&#10;Chunk Size: (2048, 2048)&#10;Chunk Type: numpy.ndarray&#10;">
<polygon fill="none" stroke="black" points="107,-341.75 39.25,-341.75 39.25,-305.75 107,-305.75 107,-341.75"/>
<text xml:space="preserve" text-anchor="middle" x="73.12" y="-316.38" font-family="Helvetica,sans-Serif" font-size="20.00">ne&#45;#3</text>
</a>
</g>
</g>
<!-- 1103691210324379109&#45;&gt;7232139198822720848 -->
<g id="edge7" class="edge">
<title>1103691210324379109&#45;&gt;7232139198822720848</title>
<path fill="none" stroke="black" d="M85.92,-270.05C84.13,-277.43 82,-286.23 79.99,-294.5"/>
<polygon fill="black" stroke="black" points="76.6,-293.63 77.64,-304.17 83.4,-295.28 76.6,-293.63"/>
</g>
<!-- &#45;5791488016269201863 -->
<g id="node7" class="node">
<title>&#45;5791488016269201863</title>
<g id="a_node7"><a xlink:title="A Blockwise Layer with 36 Tasks.&#10;Array Shape: (10980, 10980)&#10;Data Type: float32&#10;Chunk Size: (2048, 2048)&#10;Chunk Type: numpy.ndarray&#10;">
<polygon fill="none" stroke="black" points="229,-341.75 125.25,-341.75 125.25,-305.75 229,-305.75 229,-341.75"/>
<text xml:space="preserve" text-anchor="middle" x="177.12" y="-316.38" font-family="Helvetica,sans-Serif" font-size="20.00">astype&#45;#4</text>
</a>
</g>
</g>
<!-- 1103691210324379109&#45;&gt;&#45;5791488016269201863 -->
<g id="edge8" class="edge">
<title>1103691210324379109&#45;&gt;&#45;5791488016269201863</title>
<path fill="none" stroke="black" d="M111.63,-270.05C122.19,-278.55 135.1,-288.94 146.66,-298.24"/>
<polygon fill="black" stroke="black" points="144.4,-300.91 154.39,-304.45 148.79,-295.46 144.4,-300.91"/>
</g>
<!-- 7232139198822720848&#45;&gt;&#45;8362239163161629074 -->
<g id="edge1" class="edge">
<title>7232139198822720848&#45;&gt;&#45;8362239163161629074</title>
<path fill="none" stroke="black" d="M85.98,-342.05C91.9,-350.02 99.05,-359.65 105.61,-368.49"/>
<polygon fill="black" stroke="black" points="102.74,-370.49 111.52,-376.43 108.36,-366.32 102.74,-370.49"/>
</g>
<!-- &#45;5791488016269201863&#45;&gt;&#45;8362239163161629074 -->
<g id="edge2" class="edge">
<title>&#45;5791488016269201863&#45;&gt;&#45;8362239163161629074</title>
<path fill="none" stroke="black" d="M164.27,-342.05C158.35,-350.02 151.2,-359.65 144.64,-368.49"/>
<polygon fill="black" stroke="black" points="141.89,-366.32 138.73,-376.43 147.51,-370.49 141.89,-366.32"/>
</g>
<!-- &#45;2964524594952600605 -->
<g id="node9" class="node">
<title>&#45;2964524594952600605</title>
<g id="a_node9"><a xlink:title="A Blockwise Layer with 36 Tasks.&#10;Array Shape: (10980, 10980)&#10;Data Type: float32&#10;Chunk Size: (2048, 2048)&#10;Chunk Type: numpy.ndarray&#10;">
<polygon fill="none" stroke="black" points="164.62,-557.75 85.62,-557.75 85.62,-521.75 164.62,-521.75 164.62,-557.75"/>
<text xml:space="preserve" text-anchor="middle" x="125.12" y="-532.38" font-family="Helvetica,sans-Serif" font-size="20.00">add&#45;#6</text>
</a>
</g>
</g>
<!-- 4392385267279790850&#45;&gt;&#45;2964524594952600605 -->
<g id="edge10" class="edge">
<title>4392385267279790850&#45;&gt;&#45;2964524594952600605</title>
<path fill="none" stroke="black" d="M125.12,-486.05C125.12,-493.34 125.12,-502.02 125.12,-510.21"/>
<polygon fill="black" stroke="black" points="121.63,-510.13 125.13,-520.13 128.63,-510.13 121.63,-510.13"/>
</g>
<!-- 8447860066936764435 -->
<g id="node10" class="node">
<title>8447860066936764435</title>
<g id="a_node10"><a xlink:title="A Blockwise Layer with 36 Tasks.&#10;Array Shape: (10980, 10980)&#10;Data Type: float32&#10;Chunk Size: (2048, 2048)&#10;Chunk Type: numpy.ndarray&#10;">
<polygon fill="none" stroke="black" points="408.12,-413.75 308.12,-413.75 308.12,-377.75 408.12,-377.75 408.12,-413.75"/>
<text xml:space="preserve" text-anchor="middle" x="358.12" y="-388.38" font-family="Helvetica,sans-Serif" font-size="20.00">where&#45;#7</text>
</a>
</g>
</g>
<!-- 9015193356075652368 -->
<g id="node17" class="node">
<title>9015193356075652368</title>
<g id="a_node17"><a xlink:title="A Blockwise Layer with 36 Tasks.&#10;Array Shape: (10980, 10980)&#10;Data Type: float32&#10;Chunk Size: (2048, 2048)&#10;Chunk Type: numpy.ndarray&#10;">
<polygon fill="none" stroke="black" points="401.75,-485.75 314.5,-485.75 314.5,-449.75 401.75,-449.75 401.75,-485.75"/>
<text xml:space="preserve" text-anchor="middle" x="358.12" y="-460.38" font-family="Helvetica,sans-Serif" font-size="20.00">mul&#45;#11</text>
</a>
</g>
</g>
<!-- 8447860066936764435&#45;&gt;9015193356075652368 -->
<g id="edge19" class="edge">
<title>8447860066936764435&#45;&gt;9015193356075652368</title>
<path fill="none" stroke="black" d="M358.12,-414.05C358.12,-421.34 358.12,-430.02 358.12,-438.21"/>
<polygon fill="black" stroke="black" points="354.63,-438.13 358.13,-448.13 361.63,-438.13 354.63,-438.13"/>
</g>
<!-- &#45;2630983014265574797 -->
<g id="node11" class="node">
<title>&#45;2630983014265574797</title>
<g id="a_node11"><a xlink:title="A Materialized Layer with 2 Tasks.&#10;">
<polygon fill="none" stroke="black" points="377.12,-36 247.12,-36 247.12,0 377.12,0 377.12,-36"/>
<text xml:space="preserve" text-anchor="middle" x="312.12" y="-10.62" font-family="Helvetica,sans-Serif" font-size="20.00">cfg&#45;green&#45;#1</text>
</a>
</g>
</g>
<!-- 8328659856814034495 -->
<g id="node12" class="node">
<title>8328659856814034495</title>
<g id="a_node12"><a xlink:title="A Materialized Layer with 38 Tasks.&#10;">
<polygon fill="none" stroke="black" points="372.5,-108 223.75,-108 223.75,-72 372.5,-72 372.5,-108"/>
<text xml:space="preserve" text-anchor="middle" x="298.12" y="-82.62" font-family="Helvetica,sans-Serif" font-size="20.00">open&#45;green&#45;#1</text>
</a>
</g>
</g>
<!-- &#45;2630983014265574797&#45;&gt;8328659856814034495 -->
<g id="edge13" class="edge">
<title>&#45;2630983014265574797&#45;&gt;8328659856814034495</title>
<path fill="none" stroke="black" d="M308.66,-36.3C307.19,-43.68 305.43,-52.48 303.78,-60.75"/>
<polygon fill="black" stroke="black" points="300.37,-59.92 301.84,-70.41 307.24,-61.29 300.37,-59.92"/>
</g>
<!-- &#45;8500944993769617178 -->
<g id="node13" class="node">
<title>&#45;8500944993769617178</title>
<g id="a_node13"><a xlink:title="A Materialized Layer with 1368 Tasks.&#10;Array Shape: (38, 10980, 10980)&#10;Data Type: uint16&#10;Chunk Size: (1, 2048, 2048)&#10;Chunk Type: numpy.ndarray&#10;">
<polygon fill="none" stroke="black" points="410.12,-197.75 232.12,-197.75 232.12,-144 410.12,-144 410.12,-197.75"/>
<text xml:space="preserve" text-anchor="middle" x="321.12" y="-155.75" font-family="Helvetica,sans-Serif" font-size="40.00">green&#45;#1</text>
</a>
</g>
</g>
<!-- &#45;2630983014265574797&#45;&gt;&#45;8500944993769617178 -->
<g id="edge14" class="edge">
<title>&#45;2630983014265574797&#45;&gt;&#45;8500944993769617178</title>
<path fill="none" stroke="black" d="M346.32,-36.27C359.76,-45 373.71,-56.96 381.12,-72 388.2,-86.35 387.13,-93.17 381.12,-108 377.04,-118.09 370.43,-127.44 363.06,-135.65"/>
<polygon fill="black" stroke="black" points="360.68,-133.08 356.24,-142.7 365.71,-137.95 360.68,-133.08"/>
</g>
<!-- 8328659856814034495&#45;&gt;&#45;8500944993769617178 -->
<g id="edge15" class="edge">
<title>8328659856814034495&#45;&gt;&#45;8500944993769617178</title>
<path fill="none" stroke="black" d="M303.12,-108.11C305.25,-115.44 307.84,-124.3 310.37,-133"/>
<polygon fill="black" stroke="black" points="306.94,-133.72 313.1,-142.34 313.66,-131.76 306.94,-133.72"/>
</g>
<!-- &#45;2983947901424692473 -->
<g id="node14" class="node">
<title>&#45;2983947901424692473</title>
<g id="a_node14"><a xlink:title="A Materialized Layer with 36 Tasks.&#10;Array Shape: (10980, 10980)&#10;Data Type: uint16&#10;Chunk Size: (2048, 2048)&#10;Chunk Type: numpy.ndarray&#10;">
<polygon fill="none" stroke="black" points="376.38,-269.75 265.88,-269.75 265.88,-233.75 376.38,-233.75 376.38,-269.75"/>
<text xml:space="preserve" text-anchor="middle" x="321.12" y="-244.38" font-family="Helvetica,sans-Serif" font-size="20.00">getitem&#45;#8</text>
</a>
</g>
</g>
<!-- &#45;8500944993769617178&#45;&gt;&#45;2983947901424692473 -->
<g id="edge16" class="edge">
<title>&#45;8500944993769617178&#45;&gt;&#45;2983947901424692473</title>
<path fill="none" stroke="black" d="M321.12,-198.14C321.12,-205.88 321.12,-214.38 321.12,-222.25"/>
<polygon fill="black" stroke="black" points="317.63,-222.02 321.13,-232.02 324.63,-222.02 317.63,-222.02"/>
</g>
<!-- &#45;4049014341078449030 -->
<g id="node15" class="node">
<title>&#45;4049014341078449030</title>
<g id="a_node15"><a xlink:title="A Blockwise Layer with 36 Tasks.&#10;Array Shape: (10980, 10980)&#10;Data Type: bool&#10;Chunk Size: (2048, 2048)&#10;Chunk Type: numpy.ndarray&#10;">
<polygon fill="none" stroke="black" points="337,-341.75 269.25,-341.75 269.25,-305.75 337,-305.75 337,-341.75"/>
<text xml:space="preserve" text-anchor="middle" x="303.12" y="-316.38" font-family="Helvetica,sans-Serif" font-size="20.00">ne&#45;#9</text>
</a>
</g>
</g>
<!-- &#45;2983947901424692473&#45;&gt;&#45;4049014341078449030 -->
<g id="edge17" class="edge">
<title>&#45;2983947901424692473&#45;&gt;&#45;4049014341078449030</title>
<path fill="none" stroke="black" d="M316.68,-270.05C314.78,-277.43 312.52,-286.23 310.39,-294.5"/>
<polygon fill="black" stroke="black" points="307,-293.62 307.9,-304.18 313.78,-295.37 307,-293.62"/>
</g>
<!-- 3573372569890540666 -->
<g id="node16" class="node">
<title>3573372569890540666</title>
<g id="a_node16"><a xlink:title="A Blockwise Layer with 36 Tasks.&#10;Array Shape: (10980, 10980)&#10;Data Type: float32&#10;Chunk Size: (2048, 2048)&#10;Chunk Type: numpy.ndarray&#10;">
<polygon fill="none" stroke="black" points="469.62,-341.75 354.62,-341.75 354.62,-305.75 469.62,-305.75 469.62,-341.75"/>
<text xml:space="preserve" text-anchor="middle" x="412.12" y="-316.38" font-family="Helvetica,sans-Serif" font-size="20.00">astype&#45;#10</text>
</a>
</g>
</g>
<!-- &#45;2983947901424692473&#45;&gt;3573372569890540666 -->
<g id="edge18" class="edge">
<title>&#45;2983947901424692473&#45;&gt;3573372569890540666</title>
<path fill="none" stroke="black" d="M343.62,-270.05C354.78,-278.64 368.44,-289.14 380.62,-298.51"/>
<polygon fill="black" stroke="black" points="378.31,-301.16 388.37,-304.48 382.58,-295.61 378.31,-301.16"/>
</g>
<!-- &#45;4049014341078449030&#45;&gt;8447860066936764435 -->
<g id="edge11" class="edge">
<title>&#45;4049014341078449030&#45;&gt;8447860066936764435</title>
<path fill="none" stroke="black" d="M316.72,-342.05C323.05,-350.11 330.71,-359.86 337.71,-368.77"/>
<polygon fill="black" stroke="black" points="334.82,-370.75 343.75,-376.46 340.32,-366.43 334.82,-370.75"/>
</g>
<!-- 3573372569890540666&#45;&gt;8447860066936764435 -->
<g id="edge12" class="edge">
<title>3573372569890540666&#45;&gt;8447860066936764435</title>
<path fill="none" stroke="black" d="M398.78,-342.05C392.56,-350.11 385.04,-359.86 378.17,-368.77"/>
<polygon fill="black" stroke="black" points="375.58,-366.39 372.24,-376.45 381.12,-370.67 375.58,-366.39"/>
</g>
<!-- &#45;3234292487158061469 -->
<g id="node18" class="node">
<title>&#45;3234292487158061469</title>
<g id="a_node18"><a xlink:title="A Blockwise Layer with 36 Tasks.&#10;Array Shape: (10980, 10980)&#10;Data Type: float32&#10;Chunk Size: (2048, 2048)&#10;Chunk Type: numpy.ndarray&#10;">
<polygon fill="none" stroke="black" points="403.25,-557.75 313,-557.75 313,-521.75 403.25,-521.75 403.25,-557.75"/>
<text xml:space="preserve" text-anchor="middle" x="358.12" y="-532.38" font-family="Helvetica,sans-Serif" font-size="20.00">add&#45;#12</text>
</a>
</g>
</g>
<!-- 9015193356075652368&#45;&gt;&#45;3234292487158061469 -->
<g id="edge20" class="edge">
<title>9015193356075652368&#45;&gt;&#45;3234292487158061469</title>
<path fill="none" stroke="black" d="M358.12,-486.05C358.12,-493.34 358.12,-502.02 358.12,-510.21"/>
<polygon fill="black" stroke="black" points="354.63,-510.13 358.13,-520.13 361.63,-510.13 354.63,-510.13"/>
</g>
<!-- &#45;3802045725148085372 -->
<g id="node19" class="node">
<title>&#45;3802045725148085372</title>
<g id="a_node19"><a xlink:title="A Blockwise Layer with 36 Tasks.&#10;Array Shape: (10980, 10980)&#10;Data Type: float32&#10;Chunk Size: (2048, 2048)&#10;Chunk Type: numpy.ndarray&#10;">
<polygon fill="none" stroke="black" points="682.75,-413.75 571.5,-413.75 571.5,-377.75 682.75,-377.75 682.75,-413.75"/>
<text xml:space="preserve" text-anchor="middle" x="627.12" y="-388.38" font-family="Helvetica,sans-Serif" font-size="20.00">where&#45;#13</text>
</a>
</g>
</g>
<!-- 7553833206964561960 -->
<g id="node26" class="node">
<title>7553833206964561960</title>
<g id="a_node26"><a xlink:title="A Blockwise Layer with 36 Tasks.&#10;Array Shape: (10980, 10980)&#10;Data Type: float32&#10;Chunk Size: (2048, 2048)&#10;Chunk Type: numpy.ndarray&#10;">
<polygon fill="none" stroke="black" points="671.5,-485.75 582.75,-485.75 582.75,-449.75 671.5,-449.75 671.5,-485.75"/>
<text xml:space="preserve" text-anchor="middle" x="627.12" y="-460.38" font-family="Helvetica,sans-Serif" font-size="20.00">mul&#45;#17</text>
</a>
</g>
</g>
<!-- &#45;3802045725148085372&#45;&gt;7553833206964561960 -->
<g id="edge29" class="edge">
<title>&#45;3802045725148085372&#45;&gt;7553833206964561960</title>
<path fill="none" stroke="black" d="M627.12,-414.05C627.12,-421.34 627.12,-430.02 627.12,-438.21"/>
<polygon fill="black" stroke="black" points="623.63,-438.13 627.13,-448.13 630.63,-438.13 623.63,-438.13"/>
</g>
<!-- 3110870177056024980 -->
<g id="node20" class="node">
<title>3110870177056024980</title>
<g id="a_node20"><a xlink:title="A Materialized Layer with 2 Tasks.&#10;">
<polygon fill="none" stroke="black" points="642.38,-36 525.88,-36 525.88,0 642.38,0 642.38,-36"/>
<text xml:space="preserve" text-anchor="middle" x="584.12" y="-10.62" font-family="Helvetica,sans-Serif" font-size="20.00">cfg&#45;blue&#45;#1</text>
</a>
</g>
</g>
<!-- 5109193572585255901 -->
<g id="node21" class="node">
<title>5109193572585255901</title>
<g id="a_node21"><a xlink:title="A Materialized Layer with 38 Tasks.&#10;">
<polygon fill="none" stroke="black" points="603.75,-108 468.5,-108 468.5,-72 603.75,-72 603.75,-108"/>
<text xml:space="preserve" text-anchor="middle" x="536.12" y="-82.62" font-family="Helvetica,sans-Serif" font-size="20.00">open&#45;blue&#45;#1</text>
</a>
</g>
</g>
<!-- 3110870177056024980&#45;&gt;5109193572585255901 -->
<g id="edge23" class="edge">
<title>3110870177056024980&#45;&gt;5109193572585255901</title>
<path fill="none" stroke="black" d="M572.26,-36.3C566.85,-44.19 560.33,-53.7 554.33,-62.45"/>
<polygon fill="black" stroke="black" points="551.48,-60.42 548.71,-70.65 557.25,-64.38 551.48,-60.42"/>
</g>
<!-- 7996968246184127641 -->
<g id="node22" class="node">
<title>7996968246184127641</title>
<g id="a_node22"><a xlink:title="A Materialized Layer with 1368 Tasks.&#10;Array Shape: (38, 10980, 10980)&#10;Data Type: uint16&#10;Chunk Size: (1, 2048, 2048)&#10;Chunk Type: numpy.ndarray&#10;">
<polygon fill="none" stroke="black" points="624.62,-197.75 473.62,-197.75 473.62,-144 624.62,-144 624.62,-197.75"/>
<text xml:space="preserve" text-anchor="middle" x="549.12" y="-155.75" font-family="Helvetica,sans-Serif" font-size="40.00">blue&#45;#1</text>
</a>
</g>
</g>
<!-- 3110870177056024980&#45;&gt;7996968246184127641 -->
<g id="edge24" class="edge">
<title>3110870177056024980&#45;&gt;7996968246184127641</title>
<path fill="none" stroke="black" d="M597.14,-36.38C609.06,-54.56 623.4,-83.76 613.12,-108 608.83,-118.14 601.96,-127.42 594.29,-135.55"/>
<polygon fill="black" stroke="black" points="591.87,-133.03 587.17,-142.53 596.76,-138.03 591.87,-133.03"/>
</g>
<!-- 5109193572585255901&#45;&gt;7996968246184127641 -->
<g id="edge25" class="edge">
<title>5109193572585255901&#45;&gt;7996968246184127641</title>
<path fill="none" stroke="black" d="M538.95,-108.11C540.14,-115.36 541.58,-124.11 543,-132.71"/>
<polygon fill="black" stroke="black" points="539.5,-133 544.58,-142.3 546.41,-131.86 539.5,-133"/>
</g>
<!-- &#45;407334197531291690 -->
<g id="node23" class="node">
<title>&#45;407334197531291690</title>
<g id="a_node23"><a xlink:title="A Materialized Layer with 36 Tasks.&#10;Array Shape: (10980, 10980)&#10;Data Type: uint16&#10;Chunk Size: (2048, 2048)&#10;Chunk Type: numpy.ndarray&#10;">
<polygon fill="none" stroke="black" points="610,-269.75 488.25,-269.75 488.25,-233.75 610,-233.75 610,-269.75"/>
<text xml:space="preserve" text-anchor="middle" x="549.12" y="-244.38" font-family="Helvetica,sans-Serif" font-size="20.00">getitem&#45;#14</text>
</a>
</g>
</g>
<!-- 7996968246184127641&#45;&gt;&#45;407334197531291690 -->
<g id="edge26" class="edge">
<title>7996968246184127641&#45;&gt;&#45;407334197531291690</title>
<path fill="none" stroke="black" d="M549.12,-198.14C549.12,-205.88 549.12,-214.38 549.12,-222.25"/>
<polygon fill="black" stroke="black" points="545.63,-222.02 549.13,-232.02 552.63,-222.02 545.63,-222.02"/>
</g>
<!-- 6349008446646295223 -->
<g id="node24" class="node">
<title>6349008446646295223</title>
<g id="a_node24"><a xlink:title="A Blockwise Layer with 36 Tasks.&#10;Array Shape: (10980, 10980)&#10;Data Type: bool&#10;Chunk Size: (2048, 2048)&#10;Chunk Type: numpy.ndarray&#10;">
<polygon fill="none" stroke="black" points="566.62,-341.75 487.62,-341.75 487.62,-305.75 566.62,-305.75 566.62,-341.75"/>
<text xml:space="preserve" text-anchor="middle" x="527.12" y="-316.38" font-family="Helvetica,sans-Serif" font-size="20.00">ne&#45;#15</text>
</a>
</g>
</g>
<!-- &#45;407334197531291690&#45;&gt;6349008446646295223 -->
<g id="edge27" class="edge">
<title>&#45;407334197531291690&#45;&gt;6349008446646295223</title>
<path fill="none" stroke="black" d="M543.69,-270.05C541.34,-277.51 538.54,-286.43 535.91,-294.78"/>
<polygon fill="black" stroke="black" points="532.61,-293.61 532.95,-304.2 539.29,-295.71 532.61,-293.61"/>
</g>
<!-- &#45;13433569006532235 -->
<g id="node25" class="node">
<title>&#45;13433569006532235</title>
<g id="a_node25"><a xlink:title="A Blockwise Layer with 36 Tasks.&#10;Array Shape: (10980, 10980)&#10;Data Type: float32&#10;Chunk Size: (2048, 2048)&#10;Chunk Type: numpy.ndarray&#10;">
<polygon fill="none" stroke="black" points="699.62,-341.75 584.62,-341.75 584.62,-305.75 699.62,-305.75 699.62,-341.75"/>
<text xml:space="preserve" text-anchor="middle" x="642.12" y="-316.38" font-family="Helvetica,sans-Serif" font-size="20.00">astype&#45;#16</text>
</a>
</g>
</g>
<!-- &#45;407334197531291690&#45;&gt;&#45;13433569006532235 -->
<g id="edge28" class="edge">
<title>&#45;407334197531291690&#45;&gt;&#45;13433569006532235</title>
<path fill="none" stroke="black" d="M572.11,-270.05C583.52,-278.64 597.48,-289.14 609.92,-298.51"/>
<polygon fill="black" stroke="black" points="607.77,-301.28 617.87,-304.49 611.98,-295.68 607.77,-301.28"/>
</g>
<!-- 6349008446646295223&#45;&gt;&#45;3802045725148085372 -->
<g id="edge22" class="edge">
<title>6349008446646295223&#45;&gt;&#45;3802045725148085372</title>
<path fill="none" stroke="black" d="M552.1,-342.23C564.48,-350.9 579.63,-361.5 593.05,-370.9"/>
<polygon fill="black" stroke="black" points="591.03,-373.75 601.23,-376.62 595.04,-368.02 591.03,-373.75"/>
</g>
<!-- &#45;13433569006532235&#45;&gt;&#45;3802045725148085372 -->
<g id="edge21" class="edge">
<title>&#45;13433569006532235&#45;&gt;&#45;3802045725148085372</title>
<path fill="none" stroke="black" d="M638.42,-342.05C636.84,-349.43 634.95,-358.23 633.18,-366.5"/>
<polygon fill="black" stroke="black" points="629.78,-365.65 631.11,-376.17 636.63,-367.12 629.78,-365.65"/>
</g>
<!-- 6882092062243073690 -->
<g id="node27" class="node">
<title>6882092062243073690</title>
<g id="a_node27"><a xlink:title="A Blockwise Layer with 36 Tasks.&#10;Array Shape: (10980, 10980)&#10;Data Type: float32&#10;Chunk Size: (2048, 2048)&#10;Chunk Type: numpy.ndarray&#10;">
<polygon fill="none" stroke="black" points="672.25,-557.75 582,-557.75 582,-521.75 672.25,-521.75 672.25,-557.75"/>
<text xml:space="preserve" text-anchor="middle" x="627.12" y="-532.38" font-family="Helvetica,sans-Serif" font-size="20.00">add&#45;#18</text>
</a>
</g>
</g>
<!-- 7553833206964561960&#45;&gt;6882092062243073690 -->
<g id="edge30" class="edge">
<title>7553833206964561960&#45;&gt;6882092062243073690</title>
<path fill="none" stroke="black" d="M627.12,-486.05C627.12,-493.34 627.12,-502.02 627.12,-510.21"/>
<polygon fill="black" stroke="black" points="623.63,-510.13 627.13,-520.13 630.63,-510.13 623.63,-510.13"/>
</g>
<!-- 3246545163806164076 -->
<g id="node28" class="node">
<title>3246545163806164076</title>
<g id="a_node28"><a xlink:title="A Blockwise Layer with 36 Tasks.&#10;Array Shape: (10980, 10980)&#10;Data Type: float32&#10;Chunk Size: (2048, 2048)&#10;Chunk Type: numpy.ndarray&#10;">
<polygon fill="none" stroke="black" points="857.75,-413.75 746.5,-413.75 746.5,-377.75 857.75,-377.75 857.75,-413.75"/>
<text xml:space="preserve" text-anchor="middle" x="802.12" y="-388.38" font-family="Helvetica,sans-Serif" font-size="20.00">where&#45;#19</text>
</a>
</g>
</g>
<!-- 1148425968714568189 -->
<g id="node35" class="node">
<title>1148425968714568189</title>
<g id="a_node35"><a xlink:title="A Blockwise Layer with 36 Tasks.&#10;Array Shape: (10980, 10980)&#10;Data Type: float32&#10;Chunk Size: (2048, 2048)&#10;Chunk Type: numpy.ndarray&#10;">
<polygon fill="none" stroke="black" points="846.5,-485.75 757.75,-485.75 757.75,-449.75 846.5,-449.75 846.5,-485.75"/>
<text xml:space="preserve" text-anchor="middle" x="802.12" y="-460.38" font-family="Helvetica,sans-Serif" font-size="20.00">mul&#45;#23</text>
</a>
</g>
</g>
<!-- 3246545163806164076&#45;&gt;1148425968714568189 -->
<g id="edge39" class="edge">
<title>3246545163806164076&#45;&gt;1148425968714568189</title>
<path fill="none" stroke="black" d="M802.12,-414.05C802.12,-421.34 802.12,-430.02 802.12,-438.21"/>
<polygon fill="black" stroke="black" points="798.63,-438.13 802.13,-448.13 805.63,-438.13 798.63,-438.13"/>
</g>
<!-- &#45;4909887292468973350 -->
<g id="node29" class="node">
<title>&#45;4909887292468973350</title>
<g id="a_node29"><a xlink:title="A Materialized Layer with 2 Tasks.&#10;">
<polygon fill="none" stroke="black" points="894.5,-36 793.75,-36 793.75,0 894.5,0 894.5,-36"/>
<text xml:space="preserve" text-anchor="middle" x="844.12" y="-10.62" font-family="Helvetica,sans-Serif" font-size="20.00">cfg&#45;nir&#45;#1</text>
</a>
</g>
</g>
<!-- 3866138332278938396 -->
<g id="node30" class="node">
<title>3866138332278938396</title>
<g id="a_node30"><a xlink:title="A Materialized Layer with 38 Tasks.&#10;">
<polygon fill="none" stroke="black" points="859.88,-108 740.38,-108 740.38,-72 859.88,-72 859.88,-108"/>
<text xml:space="preserve" text-anchor="middle" x="800.12" y="-82.62" font-family="Helvetica,sans-Serif" font-size="20.00">open&#45;nir&#45;#1</text>
</a>
</g>
</g>
<!-- &#45;4909887292468973350&#45;&gt;3866138332278938396 -->
<g id="edge33" class="edge">
<title>&#45;4909887292468973350&#45;&gt;3866138332278938396</title>
<path fill="none" stroke="black" d="M833.25,-36.3C828.35,-44.1 822.44,-53.49 816.99,-62.17"/>
<polygon fill="black" stroke="black" points="814.04,-60.29 811.68,-70.61 819.97,-64.01 814.04,-60.29"/>
</g>
<!-- &#45;1767355171599592916 -->
<g id="node31" class="node">
<title>&#45;1767355171599592916</title>
<g id="a_node31"><a xlink:title="A Materialized Layer with 1368 Tasks.&#10;Array Shape: (38, 10980, 10980)&#10;Data Type: uint16&#10;Chunk Size: (1, 2048, 2048)&#10;Chunk Type: numpy.ndarray&#10;">
<polygon fill="none" stroke="black" points="903.88,-197.75 784.38,-197.75 784.38,-144 903.88,-144 903.88,-197.75"/>
<text xml:space="preserve" text-anchor="middle" x="844.12" y="-155.75" font-family="Helvetica,sans-Serif" font-size="40.00">nir&#45;#1</text>
</a>
</g>
</g>
<!-- &#45;4909887292468973350&#45;&gt;&#45;1767355171599592916 -->
<g id="edge34" class="edge">
<title>&#45;4909887292468973350&#45;&gt;&#45;1767355171599592916</title>
<path fill="none" stroke="black" d="M854.75,-36.44C860.22,-46.46 866.32,-59.49 869.12,-72 872.62,-87.61 872.18,-92.29 869.12,-108 867.5,-116.37 864.74,-125.03 861.64,-133.14"/>
<polygon fill="black" stroke="black" points="858.41,-131.78 857.85,-142.36 864.89,-134.44 858.41,-131.78"/>
</g>
<!-- 3866138332278938396&#45;&gt;&#45;1767355171599592916 -->
<g id="edge35" class="edge">
<title>3866138332278938396&#45;&gt;&#45;1767355171599592916</title>
<path fill="none" stroke="black" d="M809.67,-108.11C813.9,-115.69 819.03,-124.89 824.04,-133.86"/>
<polygon fill="black" stroke="black" points="820.91,-135.44 828.84,-142.47 827.02,-132.03 820.91,-135.44"/>
</g>
<!-- &#45;872711451932477635 -->
<g id="node32" class="node">
<title>&#45;872711451932477635</title>
<g id="a_node32"><a xlink:title="A Materialized Layer with 36 Tasks.&#10;Array Shape: (10980, 10980)&#10;Data Type: uint16&#10;Chunk Size: (2048, 2048)&#10;Chunk Type: numpy.ndarray&#10;">
<polygon fill="none" stroke="black" points="905,-269.75 783.25,-269.75 783.25,-233.75 905,-233.75 905,-269.75"/>
<text xml:space="preserve" text-anchor="middle" x="844.12" y="-244.38" font-family="Helvetica,sans-Serif" font-size="20.00">getitem&#45;#20</text>
</a>
</g>
</g>
<!-- &#45;1767355171599592916&#45;&gt;&#45;872711451932477635 -->
<g id="edge36" class="edge">
<title>&#45;1767355171599592916&#45;&gt;&#45;872711451932477635</title>
<path fill="none" stroke="black" d="M844.12,-198.14C844.12,-205.88 844.12,-214.38 844.12,-222.25"/>
<polygon fill="black" stroke="black" points="840.63,-222.02 844.13,-232.02 847.63,-222.02 840.63,-222.02"/>
</g>
<!-- 2972755359629580439 -->
<g id="node33" class="node">
<title>2972755359629580439</title>
<g id="a_node33"><a xlink:title="A Blockwise Layer with 36 Tasks.&#10;Array Shape: (10980, 10980)&#10;Data Type: bool&#10;Chunk Size: (2048, 2048)&#10;Chunk Type: numpy.ndarray&#10;">
<polygon fill="none" stroke="black" points="826.62,-341.75 747.62,-341.75 747.62,-305.75 826.62,-305.75 826.62,-341.75"/>
<text xml:space="preserve" text-anchor="middle" x="787.12" y="-316.38" font-family="Helvetica,sans-Serif" font-size="20.00">ne&#45;#21</text>
</a>
</g>
</g>
<!-- &#45;872711451932477635&#45;&gt;2972755359629580439 -->
<g id="edge37" class="edge">
<title>&#45;872711451932477635&#45;&gt;2972755359629580439</title>
<path fill="none" stroke="black" d="M830.04,-270.05C823.48,-278.11 815.54,-287.86 808.28,-296.77"/>
<polygon fill="black" stroke="black" points="805.61,-294.51 802.01,-304.47 811.04,-298.93 805.61,-294.51"/>
</g>
<!-- 6248377075265313037 -->
<g id="node34" class="node">
<title>6248377075265313037</title>
<g id="a_node34"><a xlink:title="A Blockwise Layer with 36 Tasks.&#10;Array Shape: (10980, 10980)&#10;Data Type: float32&#10;Chunk Size: (2048, 2048)&#10;Chunk Type: numpy.ndarray&#10;">
<polygon fill="none" stroke="black" points="959.62,-341.75 844.62,-341.75 844.62,-305.75 959.62,-305.75 959.62,-341.75"/>
<text xml:space="preserve" text-anchor="middle" x="902.12" y="-316.38" font-family="Helvetica,sans-Serif" font-size="20.00">astype&#45;#22</text>
</a>
</g>
</g>
<!-- &#45;872711451932477635&#45;&gt;6248377075265313037 -->
<g id="edge38" class="edge">
<title>&#45;872711451932477635&#45;&gt;6248377075265313037</title>
<path fill="none" stroke="black" d="M858.46,-270.05C865.2,-278.19 873.38,-288.06 880.83,-297.05"/>
<polygon fill="black" stroke="black" points="877.91,-299.01 886.99,-304.48 883.3,-294.55 877.91,-299.01"/>
</g>
<!-- 2972755359629580439&#45;&gt;3246545163806164076 -->
<g id="edge32" class="edge">
<title>2972755359629580439&#45;&gt;3246545163806164076</title>
<path fill="none" stroke="black" d="M790.83,-342.05C792.41,-349.43 794.3,-358.23 796.07,-366.5"/>
<polygon fill="black" stroke="black" points="792.62,-367.12 798.14,-376.17 799.47,-365.65 792.62,-367.12"/>
</g>
<!-- 6248377075265313037&#45;&gt;3246545163806164076 -->
<g id="edge31" class="edge">
<title>6248377075265313037&#45;&gt;3246545163806164076</title>
<path fill="none" stroke="black" d="M877.15,-342.23C864.77,-350.9 849.62,-361.5 836.2,-370.9"/>
<polygon fill="black" stroke="black" points="834.21,-368.02 828.02,-376.62 838.22,-373.75 834.21,-368.02"/>
</g>
<!-- 1285702821042598995 -->
<g id="node36" class="node">
<title>1285702821042598995</title>
<g id="a_node36"><a xlink:title="A Blockwise Layer with 36 Tasks.&#10;Array Shape: (10980, 10980)&#10;Data Type: float32&#10;Chunk Size: (2048, 2048)&#10;Chunk Type: numpy.ndarray&#10;">
<polygon fill="none" stroke="black" points="847.25,-557.75 757,-557.75 757,-521.75 847.25,-521.75 847.25,-557.75"/>
<text xml:space="preserve" text-anchor="middle" x="802.12" y="-532.38" font-family="Helvetica,sans-Serif" font-size="20.00">add&#45;#24</text>
</a>
</g>
</g>
<!-- 1148425968714568189&#45;&gt;1285702821042598995 -->
<g id="edge40" class="edge">
<title>1148425968714568189&#45;&gt;1285702821042598995</title>
<path fill="none" stroke="black" d="M802.12,-486.05C802.12,-493.34 802.12,-502.02 802.12,-510.21"/>
<polygon fill="black" stroke="black" points="798.63,-510.13 802.13,-520.13 805.63,-510.13 798.63,-510.13"/>
</g>
</g>
</svg>
